<svg width="42" height="42" viewBox="0 0 42 42" fill="none" xmlns="http://www.w3.org/2000/svg">
<rect width="42" height="42" rx="21" fill="#242627"/>
<path d="M18.1318 12C14.1972 12 11 15.1244 11 18.9694C11 22.8144 14.1972 25.9388 18.1318 25.9388C19.6886 25.9388 21.1275 25.4488 22.3008 24.6192L27.8201 30L29 28.847L23.5462 23.5046C24.618 22.2843 25.2637 20.7005 25.2637 18.9694C25.2637 15.1244 22.0665 12 18.1318 12ZM18.1318 12.8199C21.6125 12.8199 24.4246 15.568 24.4246 18.9694C24.4246 22.3708 21.6125 25.1189 18.1318 25.1189C14.6511 25.1189 11.839 22.3708 11.839 18.9694C11.839 15.568 14.6511 12.8199 18.1318 12.8199Z" fill="#D9D9D9"/>
<rect x="5.75" y="6.75" width="29.5" height="29.5" rx="14.75" stroke="#D9D9D9" stroke-width="1.5"/>
</svg>
