<svg xmlns="http://www.w3.org/2000/svg" xmlns:xlink="http://www.w3.org/1999/xlink" viewBox="0,0,256,256" width="48px" height="48px" fill-rule="nonzero"><g fill="#e3e3e3" fill-rule="nonzero" stroke="none" stroke-width="1" stroke-linecap="butt" stroke-linejoin="miter" stroke-miterlimit="10" stroke-dasharray="" stroke-dashoffset="0" font-family="none" font-weight="none" font-size="none" text-anchor="none" style="mix-blend-mode: normal"><g transform="scale(5.33333,5.33333)"><path d="M24,2c-6.05737,0 -11,4.94264 -11,11c0,6.05736 4.94263,11 11,11c6.05737,0 11,-4.94264 11,-11c0,-6.05736 -4.94263,-11 -11,-11zM24,5c4.43605,0 8,3.56395 8,8c0,4.43605 -3.56395,8 -8,8c-4.43605,0 -8,-3.56395 -8,-8c0,-4.43605 3.56395,-8 8,-8zM24,8c-1.54167,0 -2.88785,0.63213 -3.74609,1.59766c-0.85824,0.96552 -1.25391,2.19401 -1.25391,3.40234c0,1.20833 0.39566,2.43682 1.25391,3.40234c0.85824,0.96552 2.20443,1.59766 3.74609,1.59766c1.54167,0 2.88785,-0.63213 3.74609,-1.59766c0.85824,-0.96552 1.25391,-2.19401 1.25391,-3.40234c0,-1.20833 -0.39566,-2.43682 -1.25391,-3.40234c-0.85824,-0.96552 -2.20443,-1.59766 -3.74609,-1.59766zM24,11c0.79167,0 1.19548,0.24287 1.50391,0.58984c0.30842,0.34698 0.49609,0.86849 0.49609,1.41016c0,0.54167 -0.18767,1.06318 -0.49609,1.41016c-0.30842,0.34698 -0.71224,0.58984 -1.50391,0.58984c-0.79167,0 -1.19548,-0.24287 -1.50391,-0.58984c-0.30842,-0.34698 -0.49609,-0.86849 -0.49609,-1.41016c0,-0.54167 0.18767,-1.06318 0.49609,-1.41016c0.30842,-0.34698 0.71224,-0.58984 1.50391,-0.58984zM14.98828,23.55078c-1.52194,0.00936 -3.01012,0.78412 -3.8457,2.16992c-1.27368,2.11386 -0.58019,4.90434 1.5332,6.17773c1.28486,0.77392 2.65497,1.35237 4.05664,1.8418l-4.55078,4.71484c-0.01397,0.0147 -0.02765,0.02967 -0.04102,0.04492c-1.64024,1.84434 -1.47148,4.7146 0.37305,6.35352c1.84391,1.63837 4.71186,1.47069 6.35156,-0.37305l-0.04102,0.04492l5.17578,-5.35937l5.17773,5.35938l-0.04102,-0.04492c0.88272,0.99287 2.12516,1.50977 3.36328,1.50977c1.06161,0 2.13753,-0.3792 2.98828,-1.13477c0,-0.00065 0,-0.0013 0,-0.00195c1.84343,-1.63943 2.01302,-4.50753 0.37305,-6.35156c-0.01335,-0.01591 -0.02702,-0.03154 -0.04102,-0.04687l-4.55469,-4.71289c1.40202,-0.48944 2.77369,-1.0698 4.05859,-1.84375c2.1126,-1.27441 2.80688,-4.06388 1.5332,-6.17773c-1.27226,-2.11249 -4.06259,-2.80586 -6.17773,-1.5332c-3.99142,2.4041 -9.36877,2.40424 -13.36133,0c-0.52865,-0.3183 -1.09906,-0.51276 -1.67773,-0.59375c-0.217,-0.03037 -0.43492,-0.04431 -0.65234,-0.04297zM14.91602,26.53711c0.28722,-0.01357 0.58344,0.05691 0.85547,0.2207c4.99092,3.00544 11.46471,3.00496 16.45508,0c0.72686,-0.43734 1.62481,-0.21179 2.06055,0.51172c0.43603,0.72366 0.21251,1.62068 -0.51172,2.05859c-1.73898,1.04746 -3.63432,1.79833 -5.60937,2.24219c-0.52902,0.11891 -0.9527,0.51404 -1.10817,1.03349c-0.15547,0.51945 -0.01853,1.08237 0.35817,1.47237l6.20703,6.42578c0.5558,0.63177 0.50341,1.54877 -0.12695,2.10938c-0.29325,0.26044 -0.6397,0.37891 -0.99609,0.37891c-0.41587,0 -0.81781,-0.16083 -1.12109,-0.50195c-0.01399,-0.01593 -0.02832,-0.03156 -0.04297,-0.04687l-6.25781,-6.47656c-0.28262,-0.29211 -0.67168,-0.45703 -1.07812,-0.45703c-0.40645,0 -0.7955,0.16492 -1.07812,0.45703l-6.25586,6.47656c-0.01397,0.0147 -0.02765,0.02967 -0.04102,0.04492c-0.5623,0.63227 -1.48705,0.68663 -2.11914,0.125c-0.63147,-0.56108 -0.68481,-1.48552 -0.12305,-2.11719l6.19922,-6.41992c0.37671,-0.38999 0.51365,-0.95291 0.35817,-1.47237c-0.15547,-0.51945 -0.57915,-0.91458 -1.10817,-1.03349c-1.97409,-0.44384 -3.87039,-1.19278 -5.60937,-2.24023c-0.72461,-0.4366 -0.94804,-1.33445 -0.51172,-2.05859c0.21836,-0.36215 0.55222,-0.59947 0.92187,-0.69141c0.09242,-0.02298 0.18746,-0.03649 0.2832,-0.04102z"></path></g></g></svg>