<svg width="18" height="18" viewBox="0 0 18 18" fill="none" xmlns="http://www.w3.org/2000/svg">
<path d="M15.9753 2.1551C15.8 2.16279 15.6293 2.21159 15.4754 2.27323C15.3231 2.33445 14.446 2.70879 13.1509 3.26253C11.8557 3.81626 10.1721 4.53735 8.50322 5.25237C5.1654 6.68241 1.88541 8.08948 1.88541 8.08948L1.90932 8.08034C1.90932 8.08034 1.71136 8.14651 1.51065 8.28635C1.4103 8.35628 1.30233 8.44655 1.21393 8.57815C1.12553 8.70976 1.0609 8.89627 1.08526 9.09354C1.1708 9.78645 1.88893 9.983 1.88893 9.983L1.89174 9.9844L5.09658 11.0813C5.17829 11.3539 6.06863 14.3255 6.26447 14.9548C6.37264 15.3027 6.47388 15.5034 6.57947 15.6403C6.63232 15.7089 6.6877 15.7619 6.74893 15.8007C6.77325 15.8161 6.79884 15.8276 6.82416 15.8379C6.8247 15.8382 6.82503 15.8377 6.82557 15.8379C6.82868 15.8393 6.8316 15.8394 6.83471 15.8407L6.82627 15.8386C6.83215 15.841 6.83796 15.845 6.84385 15.8471C6.85527 15.8511 6.86228 15.8509 6.8769 15.8541C7.24393 15.9822 7.54768 15.7444 7.54768 15.7444L7.56033 15.7346L9.52908 13.9085L12.7241 16.3997L12.7642 16.418C13.3234 16.6663 13.8292 16.5278 14.1092 16.2999C14.3893 16.072 14.4995 15.7782 14.4995 15.7782L14.5114 15.7472L16.8592 3.51074C16.9192 3.23698 16.9278 3.00035 16.8711 2.78652C16.8145 2.57269 16.6768 2.38681 16.5041 2.28378C16.3314 2.18075 16.1507 2.14741 15.9753 2.1551ZM15.9943 2.88705C16.0655 2.88376 16.1183 2.8919 16.1349 2.90182C16.1516 2.91174 16.159 2.91044 16.175 2.97073C16.191 3.03102 16.1996 3.158 16.156 3.35675L16.1546 3.36096L13.8203 15.5264C13.8147 15.5387 13.7661 15.6512 13.655 15.7416C13.5417 15.8338 13.4157 15.9057 13.0813 15.7655L9.58745 13.0409L9.48901 12.9635L9.4869 12.9657L8.44206 12.1817L14.3139 5.27347C14.406 5.16531 14.426 5.01305 14.3647 4.88482C14.3035 4.75658 14.1726 4.67635 14.0305 4.68004C13.9625 4.6818 13.8965 4.70277 13.8399 4.74051L5.34339 10.4049L2.13362 9.3059C2.13362 9.3059 1.81489 9.12854 1.79964 9.00496C1.79879 8.99811 1.79503 9.00431 1.81159 8.97965C1.82815 8.95499 1.86978 8.91336 1.92198 8.87699C2.02637 8.80426 2.14557 8.76027 2.14557 8.76027L2.15752 8.75605L2.16947 8.75113C2.16947 8.75113 5.44963 7.344 8.78729 5.91402C10.4561 5.19904 12.1394 4.47848 13.4342 3.92488C14.7287 3.37143 15.6641 2.97305 15.7433 2.94121C15.8335 2.9051 15.9231 2.89035 15.9943 2.88705ZM12.1004 6.76549L7.64752 12.0045L7.64541 12.0066C7.63846 12.015 7.63189 12.0236 7.62572 12.0326C7.61866 12.0423 7.61209 12.0524 7.60604 12.0628C7.58102 12.1053 7.56498 12.1524 7.55893 12.2014C7.55892 12.2023 7.55892 12.2032 7.55893 12.2042L6.97885 14.8128C6.9692 14.7846 6.96245 14.7743 6.95213 14.741V14.7403C6.76788 14.1483 5.92788 11.3458 5.81166 10.9582L12.1004 6.76549ZM8.15026 12.863L8.95042 13.4635L7.77479 14.5533L8.15026 12.863Z" fill="#D9D9D9"/>
</svg>
