<svg width="17" height="18" viewBox="0 0 17 18" fill="none" xmlns="http://www.w3.org/2000/svg">
<path d="M8.29633 3.23999C6.0518 3.23999 3.94406 3.41999 2.8218 3.67171C2.07406 3.85171 1.42727 4.39171 1.2918 5.21999C1.15633 6.08343 1.01953 7.37999 1.01953 8.99999C1.01953 10.62 1.155 11.88 1.325 12.78C1.4618 13.5717 2.10727 14.1483 2.855 14.3283C4.04633 14.58 6.085 14.76 8.32953 14.76C10.5741 14.76 12.6127 14.58 13.8027 14.3283C14.5518 14.1483 15.1973 13.6083 15.3327 12.78C15.4695 11.88 15.6395 10.5848 15.6727 8.96483C15.6727 7.34483 15.5027 6.04827 15.3327 5.14827C15.1973 4.35655 14.5518 3.77999 13.8027 3.59999C12.6127 3.41999 10.5395 3.23999 8.29633 3.23999ZM8.29633 3.95999C10.7441 3.95999 12.715 4.17515 13.6673 4.35515C14.1773 4.49999 14.585 4.85999 14.6527 5.32827C14.8573 6.47999 14.9927 7.70484 14.9927 8.96484C14.9595 10.5117 14.7895 11.7717 14.6527 12.6717C14.5518 13.3552 13.8718 13.5717 13.6673 13.6448C12.4427 13.8966 10.4027 14.0752 8.36274 14.0752C6.32274 14.0752 4.24953 13.9317 3.05953 13.6448C2.54953 13.5 2.1418 13.14 2.07406 12.6717C1.8018 11.6634 1.69953 10.3317 1.69953 9C1.69953 7.34344 1.83633 6.12 1.9718 5.36484C2.07406 4.68 2.78727 4.46343 2.95727 4.39172C4.07953 4.14 6.15406 3.95999 8.29633 3.95999ZM6.45953 6.11999V11.88L11.2195 8.99999L6.45953 6.11999ZM7.13953 7.34483L9.85953 8.99999L7.13953 10.6551V7.34483Z" fill="#D9D9D9"/>
</svg>
